<svg xmlns="http://www.w3.org/2000/svg" width="720" height="590" viewBox="0 0 720 590" role="img" aria-label="브릭빌더 앱 미리보기">
  <rect width="720" height="590" rx="24" fill="#e7ebf1"/>
  <rect x="40" y="34" width="640" height="410" rx="16" fill="#d9dee8"/>
  <g transform="translate(360 235)">
    <path d="M-122-55 66-160 208-78 20 30Z" fill="#d8322b"/>
    <path d="M-122-55 20 30 20 146-122 62Z" fill="#a5221d"/>
    <path d="M20 30 208-78 208 38 20 146Z" fill="#7d1c18"/>
    <ellipse cx="-42" cy="-54" rx="34" ry="19" fill="#f15b53"/>
    <ellipse cx="38" cy="-98" rx="34" ry="19" fill="#f15b53"/>
    <ellipse cx="116" cy="-54" rx="34" ry="19" fill="#f15b53"/>
    <ellipse cx="34" cy="-9" rx="34" ry="19" fill="#f15b53"/>
  </g>
  <rect x="40" y="462" width="640" height="82" rx="14" fill="#fff"/>
  <rect x="64" y="484" width="64" height="38" rx="8" fill="#c4251b"/>
  <rect x="148" y="484" width="150" height="13" rx="6" fill="#aab4c0"/>
  <rect x="148" y="508" width="94" height="10" rx="5" fill="#d2d8e2"/>
  <rect x="352" y="484" width="68" height="38" rx="8" fill="#f1f3f7"/>
  <rect x="436" y="484" width="68" height="38" rx="8" fill="#f1f3f7"/>
  <rect x="520" y="484" width="136" height="38" rx="8" fill="#172033"/>
</svg>
